<svg xmlns="http://www.w3.org/2000/svg" viewBox="0 0 83.723 10.43"><defs><style>.cls-1{fill:#fff;}</style></defs><title>cta-participez</title><g id="Ebene_2" data-name="Ebene 2"><g id="challenge"><path class="cls-1" d="M1.954,6.426,1.27,10.312H0L1.8.118H5.046C7.4.118,8.546,1.3,8.2,3.279S6.3,6.426,3.934,6.426ZM4.138,5.273c1.728,0,2.567-.738,2.788-1.994S6.571,1.271,4.843,1.271H2.863l-.7,4Z"/><path class="cls-1" d="M7.193,10.312,12.535.118h1.182l1.748,10.194H14.121l-.372-2.334H9.731L8.538,10.312Zm3.141-3.487h3.22l-.767-4.786Z"/><path class="cls-1" d="M22.97,10.312,21.6,6.012H19.192l-.757,4.3h-1.27L18.962.118h3.249c2.349,0,3.535.976,3.186,2.955A3.244,3.244,0,0,1,22.91,5.791l1.478,4.521ZM21.375,4.86c1.729,0,2.531-.532,2.753-1.787s-.392-1.8-2.12-1.8h-1.98L19.4,4.86Z"/><path class="cls-1" d="M34.324.118l-.2,1.153h-3.1l-1.594,9.041H28.155l1.594-9.041h-3.1l.2-1.153Z"/><path class="cls-1" d="M35.571,10.312H34.3L36.1.118h1.27Z"/><path class="cls-1" d="M45.36,3.294c-.073-1.6-.789-2.142-2.044-2.142-1.566,0-2.594.976-3.04,3.5l-.2,1.123c-.445,2.526.239,3.5,1.806,3.5a2.842,2.842,0,0,0,2.8-2.141h1.225a4.224,4.224,0,0,1-4.227,3.294c-2.261,0-3.454-1.36-2.873-4.654l.2-1.123C39.586,1.359,41.259,0,43.52,0c2.007,0,3.15,1.063,3.081,3.294Z"/><path class="cls-1" d="M48.776,10.312h-1.27L49.3.118h1.271Z"/><path class="cls-1" d="M53.687,6.426,53,10.312h-1.27L53.529.118h3.248c2.35,0,3.5,1.183,3.151,3.161s-1.9,3.147-4.262,3.147Zm2.182-1.153c1.729,0,2.568-.738,2.789-1.994S58.3,1.271,56.574,1.271H54.6l-.7,4Z"/><path class="cls-1" d="M68.654.118l-.2,1.153H63.576l-.562,3.191h4.431l-.2,1.152H62.811l-.625,3.545h4.875l-.2,1.153H60.713L62.51.118Z"/><path class="cls-1" d="M76.617.118l-.151.858L70.03,9.159h5.14l-.2,1.153H68.188l.151-.858,6.42-8.183H69.781l.2-1.153Z"/><path class="cls-1" d="M82,10.312H80.58l.25-1.419h1.418ZM83.723.118H82.451l-1.3,7.4h1.271Z"/></g></g></svg>